<svg width="50" height="53" viewBox="0 0 50 53" fill="none" xmlns="http://www.w3.org/2000/svg">
<circle cx="25" cy="28" r="24" fill="white" stroke="black" stroke-width="2"/>
<line x1="7.5" y1="31" x2="7.5" y2="41" stroke="black" stroke-width="3"/>
<line x1="13.5" y1="28" x2="13.5" y2="46" stroke="#A3A3A3" stroke-width="3"/>
<line x1="19.5" y1="24" x2="19.5" y2="49" stroke="black" stroke-width="3"/>
<line x1="31.5" y1="15" x2="31.5" y2="48" stroke="black" stroke-width="3"/>
<path d="M43.5 17V38" stroke="black" stroke-width="3"/>
<path d="M25.5702 19.0077L25.5703 34.5039L25.5703 50" stroke="#A3A3A3" stroke-width="3"/>
<path d="M37.1606 12L37.1343 28.0003L37.108 44.0005" stroke="#A3A3A3" stroke-width="3"/>
<path d="M21 18L15 13" stroke="black" stroke-width="2"/>
<path d="M28 9L20 18" stroke="black" stroke-width="2"/>
<path d="M16 13L4 26" stroke="black" stroke-width="2"/>
<circle cx="25" cy="28" r="22" stroke="white" stroke-width="2"/>
<path d="M37 6C37 9.31371 34.5376 12 31.5 12C28.4624 12 26 9.31371 26 6C26 2.68629 28.4624 0 31.5 0C34.5376 0 37 2.68629 37 6Z" fill="#FEE9E9"/>
<path d="M31.0788 10.9091V1.81818H31.6612V10.9091H31.0788ZM32.4815 4.90767C32.4579 4.64725 32.3525 4.44484 32.1655 4.30043C31.9808 4.15365 31.7169 4.08026 31.3736 4.08026C31.1463 4.08026 30.9569 4.10985 30.8054 4.16903C30.6539 4.22822 30.5402 4.3099 30.4645 4.41406C30.3887 4.51586 30.3497 4.63305 30.3473 4.76562C30.3426 4.87453 30.3639 4.97041 30.4112 5.05327C30.4609 5.13613 30.532 5.20952 30.6243 5.27344C30.719 5.33499 30.8326 5.38944 30.9652 5.43679C31.0978 5.48414 31.2469 5.52557 31.4126 5.56108L32.0376 5.70312C32.3975 5.78125 32.7147 5.88542 32.9893 6.01562C33.2663 6.14583 33.4983 6.3009 33.6854 6.48082C33.8748 6.66075 34.018 6.8679 34.1151 7.10227C34.2121 7.33665 34.2618 7.59943 34.2642 7.89062C34.2618 8.34991 34.1458 8.74408 33.9162 9.07315C33.6866 9.40223 33.3563 9.65436 32.9254 9.82955C32.4969 10.0047 31.9796 10.0923 31.3736 10.0923C30.7652 10.0923 30.2348 10.0012 29.7827 9.81889C29.3305 9.6366 28.9789 9.35961 28.728 8.98793C28.477 8.61624 28.348 8.14631 28.3409 7.57812H30.0241C30.0384 7.8125 30.1011 8.00781 30.2124 8.16406C30.3236 8.32031 30.4763 8.43868 30.6705 8.51918C30.867 8.59967 31.0942 8.63991 31.3523 8.63991C31.589 8.63991 31.7902 8.60795 31.956 8.54403C32.1241 8.48011 32.2531 8.39134 32.343 8.2777C32.433 8.16406 32.4792 8.03385 32.4815 7.88707C32.4792 7.74976 32.4366 7.63258 32.3537 7.53551C32.2708 7.43608 32.143 7.35085 31.9702 7.27983C31.7997 7.20644 31.5819 7.13897 31.3168 7.07741L30.5568 6.89986C29.9271 6.75544 29.4311 6.52225 29.0689 6.20028C28.7067 5.87595 28.5268 5.43797 28.5291 4.88636C28.5268 4.43655 28.6475 4.04238 28.8913 3.70384C29.1352 3.36529 29.4725 3.10133 29.9034 2.91193C30.3343 2.72254 30.8255 2.62784 31.3771 2.62784C31.9406 2.62784 32.4295 2.72372 32.8438 2.91548C33.2604 3.10488 33.5836 3.37121 33.8132 3.71449C34.0429 4.05777 34.16 4.45549 34.1648 4.90767H32.4815Z" fill="black"/>
</svg>
